<svg width="16" height="16" viewBox="0 0 16 16" fill="none" xmlns="http://www.w3.org/2000/svg">
<rect width="16" height="16" fill="#1E1E1E"/>
<g id="Frame">
<rect width="1200" height="4743" transform="translate(-695 -4666)" fill="white"/>
<path id="Rectangle" d="M-695 -399H505V76H-695V-399Z" fill="#121214"/>
<g id="IMAGE" clip-path="url(#clip0_0_1)">
<g id="Group">
<g id="Group_2">
<path id="Vector" d="M15.1159 0.000488281H0.883064C0.395693 0.000488281 0 0.395391 0 0.883552V15.1164C0 15.6045 0.395693 16 0.883064 16H8.54559V9.80402H6.4607V7.38904H8.54559V5.60815C8.54559 3.54196 9.80722 2.41627 11.6508 2.41627C12.5347 2.41627 13.2926 2.48239 13.5136 2.51111V4.67082L12.2349 4.67135C11.2325 4.67135 11.0391 5.14792 11.0391 5.84683V7.38824H13.4306L13.1179 9.80297H11.0388V15.9992H15.1156C15.6035 15.9992 15.9995 15.6032 15.9995 15.1164V0.883025C15.9992 0.395391 15.6038 0.000488281 15.1159 0.000488281Z" fill="white"/>
</g>
</g>
</g>
</g>
<defs>
<clipPath id="clip0_0_1">
<rect width="16" height="16" fill="white"/>
</clipPath>
</defs>
</svg>
